<svg width="24" height="24" viewBox="0 0 24 24" fill="none" xmlns="http://www.w3.org/2000/svg">
<path d="M23.6 1.2C23.4 1 23 1 22.7 1L17 2.7V22.8L23.3 21C23.7 20.9 24 20.5 24 20V2C24 1.7 23.9 1.4 23.6 1.2Z" fill="#002AD1" fill-opacity="0.1"/>
<path d="M15 2.7002L9 1.2002V21.3002L15 22.8002V2.7002Z" fill="#F58730"/>
<path d="M7 1.2002L0.700001 3.00019C0.300001 3.20019 0 3.60019 0 4.00019V22.0002C0 22.3002 0.0999996 22.6002 0.4 22.8002C0.6 22.9002 0.8 23.0002 1 23.0002H1.3L7 21.3002V1.2002Z" fill="#002AD1"/>
</svg>
