<svg xmlns="http://www.w3.org/2000/svg" width="25" height="24" fill="none" viewBox="0 0 25 24">
    <path fill="#252B33" d="M22.42 6.62c-.102-.244-.296-.439-.54-.54-.12-.051-.25-.078-.38-.08h-5c-.265 0-.52.105-.707.293-.188.187-.293.442-.293.707 0 .265.105.52.293.707.187.188.442.293.707.293h2.59l-5.59 5.59-3.29-3.3c-.093-.094-.204-.168-.325-.219-.122-.05-.253-.077-.385-.077s-.263.026-.385.077c-.122.05-.232.125-.325.219l-6 6c-.094.093-.168.204-.219.325-.05.122-.077.253-.077.385s.026.263.077.385c.05.121.125.232.219.325.093.094.204.168.325.219.122.05.253.077.385.077s.263-.026.385-.077c.121-.05.232-.125.325-.219l5.29-5.3 3.29 3.3c.093.094.204.168.325.219.122.05.253.077.385.077s.263-.026.384-.077c.122-.05.233-.125.326-.219l6.29-6.3V12c0 .265.105.52.293.707.187.188.442.293.707.293.265 0 .52-.105.707-.293.188-.187.293-.442.293-.707V7c-.002-.13-.029-.26-.08-.38z"/>
</svg>
