<svg xmlns="http://www.w3.org/2000/svg" width="24" height="24" fill="none" viewBox="0 0 24 24">
    <path fill="#002AD1" d="M21.563 11.25H15c-.597 0-1.169-.237-1.591-.659-.422-.422-.659-.994-.659-1.591V2.437c0-.05-.02-.097-.055-.132s-.083-.055-.133-.055h-2.496c-.087-.162-.19-.316-.304-.46C9.222 1.12 8.418.75 7.5.75c-1.766 0-3 1.388-3 3.375v6.75c0 1.172.953 1.875 1.875 1.875.247.003.492-.044.72-.137.23-.093.437-.231.612-.406.174-.175.313-.383.406-.611.093-.229.14-.474.137-.721V3.75c0-.199-.079-.39-.22-.53C7.89 3.079 7.7 3 7.5 3s-.39.079-.53.22c-.141.14-.22.331-.22.53v7.125c.002.05-.007.1-.025.145-.018.047-.046.089-.081.124s-.077.063-.124.08c-.046.019-.095.028-.145.026-.105 0-.375-.068-.375-.375v-6.75c0-.907.394-1.875 1.5-1.875C8.892 2.25 9 3.663 9 4.096V10.6c0 .818-.256 1.558-.722 2.084-.473.535-1.131.816-1.903.816s-1.43-.281-1.903-.816c-.466-.526-.722-1.266-.722-2.084V6.75c0-.199-.079-.39-.22-.53C3.39 6.079 3.2 6 3 6s-.39.079-.53.22c-.141.14-.22.331-.22.53v3.85c0 2.414 1.556 4.201 3.75 4.384v5.266c0 .796.316 1.559.879 2.121.562.563 1.325.879 2.121.879h9.75c.796 0 1.559-.316 2.121-.879.563-.562.879-1.325.879-2.121v-8.813c0-.05-.02-.097-.055-.132s-.083-.055-.133-.055z"/>
    <path fill="#002AD1" d="M15 9.75h6.085c.018 0 .036-.006.052-.016.015-.01.027-.025.034-.042.007-.017.009-.036.005-.054-.003-.018-.012-.035-.025-.048L14.41 2.85c-.013-.013-.03-.022-.048-.025-.018-.004-.037-.002-.054.005s-.032.019-.042.034c-.01.016-.016.034-.016.052V9c0 .199.079.39.22.53.14.141.331.22.53.22z"/>
</svg>
