<svg xmlns="http://www.w3.org/2000/svg" width="25" height="24" fill="none" viewBox="0 0 25 24">
    <path fill="#252B33" d="M12.5 3c1.815 0 3.587.549 5.085 1.574 1.497 1.025 2.65 2.48 3.306 4.172.656 1.692.786 3.543.371 5.31-.415 1.767-1.354 3.367-2.694 4.59-1.34 1.224-3.02 2.014-4.816 2.267-1.798.252-3.63-.045-5.255-.852-1.625-.807-2.969-2.087-3.854-3.671-.885-1.585-1.27-3.4-1.106-5.207.012-.13.05-.258.11-.374.061-.117.145-.22.246-.304.1-.084.217-.148.342-.187.126-.039.257-.053.388-.041.131.012.258.05.374.11.117.061.22.144.304.245.084.101.148.218.187.343.039.125.053.257.041.388-.096 1.023.035 2.054.385 3.02.35.966.908 1.842 1.636 2.567.375.375.792.707 1.242.988 1.115.696 2.402 1.064 3.716 1.062 1.314-.002 2.601-.373 3.714-1.072 1.112-.699 2.006-1.696 2.578-2.88.572-1.182.8-2.502.658-3.808-.143-1.306-.65-2.545-1.464-3.577-.814-1.031-1.902-1.813-3.14-2.255-1.236-.442-2.573-.527-3.856-.245-1.284.282-2.462.919-3.4 1.839h1.4c.257 0 .504.096.69.271.188.176.3.416.315.672.015.256-.069.508-.234.703-.166.196-.4.32-.655.349l-.116.006H4.996c-.245 0-.481-.09-.664-.253-.183-.163-.3-.387-.329-.63l-.007-.117v-4c-.002-.256.095-.504.27-.69.176-.188.416-.3.672-.315.256-.015.508.069.704.234.195.166.32.4.348.655l.006.117v1.774c.84-.88 1.85-1.579 2.967-2.056 1.118-.478 2.322-.723 3.537-.722zm-.75 4c.181 0 .357.066.493.185.137.119.226.283.25.463l.007.102V12h2.25c.19 0 .373.072.512.202s.223.307.236.497c.013.19-.046.377-.166.524-.12.148-.292.244-.48.27l-.102.007h-3c-.181 0-.356-.066-.493-.185-.136-.119-.225-.284-.25-.463L11 12.75v-5c0-.199.08-.39.22-.53.14-.141.331-.22.53-.22z"/>
</svg>
