<svg xmlns="http://www.w3.org/2000/svg" width="25" height="24" fill="none" viewBox="0 0 25 24">
    <g clip-path="url(#clip0)">
        <path fill="#252B33" d="M23.937 8.25H21.13l-.78-1.95C19.549 4.295 17.636 3 15.476 3H9.523C7.364 3 5.451 4.295 4.65 6.3l-.78 1.95H1.063c-.366 0-.635.344-.546.699l.281 1.125c.063.25.288.426.546.426h.94c-.629.55-1.034 1.35-1.034 2.25V15c0 .756.289 1.438.75 1.965V19.5c0 .828.672 1.5 1.5 1.5H5c.828 0 1.5-.672 1.5-1.5V18h12v1.5c0 .828.672 1.5 1.5 1.5h1.5c.828 0 1.5-.672 1.5-1.5v-2.535c.461-.527.75-1.209.75-1.965v-2.25c0-.9-.406-1.7-1.035-2.25h.941c.258 0 .483-.176.546-.426l.281-1.125c.089-.355-.18-.699-.546-.699zM7.434 7.414C7.776 6.56 8.604 6 9.524 6h5.952c.92 0 1.748.56 2.09 1.414L18.5 9.75h-12l.934-2.336zM5 14.991c-.9 0-1.5-.598-1.5-1.496C3.5 12.598 4.1 12 5 12s2.25 1.346 2.25 2.243c0 .897-1.35.748-2.25.748zm15 0c-.9 0-2.25.15-2.25-.748C17.75 13.346 19.1 12 20 12c.9 0 1.5.598 1.5 1.495 0 .898-.6 1.496-1.5 1.496z"/>
    </g>
    <defs>
        <clipPath id="clip0">
            <path fill="#fff" d="M0 0H24V24H0z" transform="translate(.5)"/>
        </clipPath>
    </defs>
</svg>
