<svg width="15" height="14" viewBox="0 0 15 14" fill="none" xmlns="http://www.w3.org/2000/svg">
<path d="M13.8002 0.715646C13.7077 0.622851 13.5978 0.549232 13.4768 0.499002C13.3559 0.448771 13.2262 0.422916 13.0952 0.422916C12.9643 0.422916 12.8346 0.448771 12.7136 0.499002C12.5926 0.549232 12.4827 0.622851 12.3902 0.715646L7.50022 5.60041L2.61022 0.705636C2.51764 0.612963 2.40773 0.539451 2.28677 0.489298C2.1658 0.439144 2.03615 0.41333 1.90522 0.41333C1.77429 0.41333 1.64464 0.439144 1.52368 0.489298C1.40272 0.539451 1.29281 0.612963 1.20022 0.705636C1.10764 0.798308 1.0342 0.908326 0.984097 1.02941C0.933992 1.15049 0.908203 1.28027 0.908203 1.41132C0.908203 1.54238 0.933992 1.67216 0.984097 1.79324C1.0342 1.91432 1.10764 2.02434 1.20022 2.11701L6.09022 7.01179L1.20022 11.9066C1.10764 11.9992 1.0342 12.1093 0.984097 12.2303C0.933992 12.3514 0.908203 12.4812 0.908203 12.6123C0.908203 12.7433 0.933992 12.8731 0.984097 12.9942C1.0342 13.1152 1.10764 13.2253 1.20022 13.3179C1.29281 13.4106 1.40272 13.4841 1.52368 13.5343C1.64464 13.5844 1.77429 13.6102 1.90522 13.6102C2.03615 13.6102 2.1658 13.5844 2.28677 13.5343C2.40773 13.4841 2.51764 13.4106 2.61022 13.3179L7.50022 8.42316L12.3902 13.3179C12.4828 13.4106 12.5927 13.4841 12.7137 13.5343C12.8346 13.5844 12.9643 13.6102 13.0952 13.6102C13.2262 13.6102 13.3558 13.5844 13.4768 13.5343C13.5977 13.4841 13.7076 13.4106 13.8002 13.3179C13.8928 13.2253 13.9662 13.1152 14.0163 12.9942C14.0665 12.8731 14.0922 12.7433 14.0922 12.6123C14.0922 12.4812 14.0665 12.3514 14.0163 12.2303C13.9662 12.1093 13.8928 11.9992 13.8002 11.9066L8.91022 7.01179L13.8002 2.11701C14.1802 1.73664 14.1802 1.09602 13.8002 0.715646Z" fill="#252525" fill-opacity="0.4"/>
</svg>
