<svg width="34" height="34" viewBox="0 0 34 34" fill="none" xmlns="http://www.w3.org/2000/svg">
<path d="M16.9987 0.333496C26.2037 0.333496 33.6654 7.79516 33.6654 17.0002C33.6654 26.2052 26.2037 33.6668 16.9987 33.6668C7.7937 33.6668 0.332031 26.2052 0.332031 17.0002C0.332031 7.79516 7.7937 0.333496 16.9987 0.333496ZM22.3654 11.9502L14.9154 19.4002L11.632 16.1168C11.3951 15.896 11.0817 15.7758 10.7578 15.7815C10.434 15.7873 10.125 15.9184 9.896 16.1475C9.66697 16.3765 9.53579 16.6855 9.53007 17.0093C9.52436 17.3331 9.64456 17.6465 9.86537 17.8835L14.032 22.0502C14.2664 22.2842 14.5841 22.4157 14.9154 22.4157C15.2466 22.4157 15.5643 22.2842 15.7987 22.0502L24.132 13.7168C24.2548 13.6024 24.3533 13.4644 24.4217 13.3111C24.49 13.1577 24.5267 12.9922 24.5297 12.8244C24.5326 12.6565 24.5018 12.4898 24.4389 12.3342C24.376 12.1785 24.2825 12.0371 24.1638 11.9184C24.0451 11.7997 23.9037 11.7062 23.748 11.6433C23.5924 11.5804 23.4257 11.5495 23.2578 11.5525C23.09 11.5555 22.9245 11.5922 22.7711 11.6605C22.6178 11.7288 22.4798 11.8274 22.3654 11.9502Z" fill="#2EB57E"/>
</svg>
