<svg xmlns="http://www.w3.org/2000/svg" width="24" height="25" fill="none" viewBox="0 0 24 25">
    <path fill="#252525" fill-opacity=".7" d="M13.414 12.886l2.829-2.828c.093-.093.167-.203.217-.325.05-.121.076-.251.076-.383 0-.13-.026-.261-.076-.382-.05-.122-.124-.232-.217-.325s-.203-.167-.325-.217c-.121-.05-.251-.076-.382-.076-.132 0-.262.026-.383.076-.122.05-.232.124-.325.217L12 11.472 9.172 8.643c-.188-.188-.442-.293-.708-.293-.265 0-.52.105-.707.293-.188.188-.293.442-.293.707 0 .132.026.262.076.383.05.122.124.232.217.325l2.829 2.828-2.829 2.828c-.188.188-.293.442-.293.708 0 .265.105.52.293.707.188.188.442.293.707.293.266 0 .52-.105.708-.293L12 14.3l2.828 2.829c.188.188.442.293.708.293.265 0 .52-.105.707-.293.188-.188.293-.442.293-.707 0-.266-.105-.52-.293-.708l-2.829-2.828zm-1.414 10c-5.523 0-10-4.477-10-10s4.477-10 10-10 10 4.477 10 10-4.477 10-10 10z"/>
</svg>
