<svg xmlns="http://www.w3.org/2000/svg" width="26" height="24" fill="none" viewBox="0 0 26 24">
    <path fill="#002AD1" d="M20.608 18H6.088c-.573 0-1.037.448-1.037 1s.464 1 1.037 1h14.52c.573 0 1.038-.448 1.038-1s-.465-1-1.038-1z"/>
    <path fill="#002AD1" d="M5.05 17v2c0 .552.465 1 1.038 1s1.037-.448 1.037-1v-2c0-.552-.464-1-1.037-1s-1.037.448-1.037 1zM19.571 17v2c0 .552.465 1 1.037 1 .573 0 1.038-.448 1.038-1v-2c0-.552-.465-1-1.038-1-.572 0-1.037.448-1.037 1zM13.348 15c-.215.002-.425-.061-.601-.18L8.598 12c-.223-.153-.375-.385-.422-.646-.046-.26.016-.528.173-.744.079-.108.179-.2.295-.27.115-.072.244-.12.38-.142.134-.022.273-.018.406.011.134.03.26.084.371.161l3.547 2.39 3.527-2.56c.22-.16.497-.227.769-.19.272.038.518.178.683.39.165.212.236.479.197.741-.039.263-.184.5-.405.659l-4.148 3c-.18.13-.398.2-.623.2z"/>
    <path fill="#002AD1" d="M13.348 13c-.275 0-.54-.105-.734-.293-.194-.187-.304-.442-.304-.707V4c0-.265.11-.52.304-.707.195-.188.459-.293.734-.293.275 0 .539.105.733.293.195.187.304.442.304.707v8c0 .265-.11.52-.304.707-.194.188-.458.293-.733.293z"/>
</svg>
