<svg xmlns="http://www.w3.org/2000/svg" width="18" height="18" fill="none" viewBox="0 0 18 18">
    <path fill="#002AD1" d="M14.25 9.75c-.199 0-.39.079-.53.22-.141.14-.22.331-.22.53v.285l-1.11-1.11c-.392-.389-.922-.607-1.474-.607-.552 0-1.082.218-1.473.607l-.525.525-1.86-1.86c-.398-.378-.926-.59-1.474-.59-.549 0-1.077.212-1.474.59L3 9.45v-4.2c0-.199.079-.39.22-.53.14-.141.331-.22.53-.22H9c.199 0 .39-.08.53-.22.141-.14.22-.331.22-.53s-.079-.39-.22-.53C9.39 3.079 9.2 3 9 3H3.75c-.597 0-1.169.237-1.591.659-.422.422-.659.994-.659 1.59v9c0 .598.237 1.17.659 1.592.422.422.994.659 1.591.659h9c.597 0 1.169-.237 1.591-.66.422-.421.659-.993.659-1.59V10.5c0-.199-.079-.39-.22-.53-.14-.141-.331-.22-.53-.22zM3.75 15c-.199 0-.39-.08-.53-.22-.141-.14-.22-.331-.22-.53v-2.678l2.175-2.175c.11-.105.257-.163.409-.163.152 0 .298.058.409.163l2.377 2.378L11.595 15H3.75zm9.75-.75c-.001.143-.048.283-.135.397L9.982 11.25l.526-.525c.053-.055.118-.099.188-.128.071-.03.147-.045.224-.045.077 0 .153.015.224.045.07.03.135.073.188.128l2.168 2.182v1.343zm3.532-11.033l-2.25-2.25c-.07-.068-.155-.121-.247-.157-.183-.075-.387-.075-.57 0-.092.036-.176.09-.248.157l-2.25 2.25c-.14.142-.22.333-.22.533s.08.391.22.532c.142.142.333.221.533.221s.391-.08.533-.22l.967-.976V7.5c0 .199.079.39.22.53.14.14.331.22.53.22s.39-.08.53-.22c.141-.14.22-.331.22-.53V3.307l.967.975c.07.07.153.127.245.165.091.038.189.057.288.057.099 0 .197-.02.288-.057.092-.038.175-.094.244-.165.07-.07.127-.152.165-.244.038-.091.057-.19.057-.288 0-.1-.02-.197-.057-.289-.038-.09-.094-.174-.165-.244z"/>
</svg>
