<svg xmlns="http://www.w3.org/2000/svg" width="24" height="24" fill="none" viewBox="0 0 24 24">
    <path fill="#000" d="M9 5c-.265 0-.52.105-.707.293C8.105 5.48 8 5.735 8 6c0 .265.105.52.293.707C8.48 6.895 8.735 7 9 7c.265 0 .52-.105.707-.293C9.895 6.52 10 6.265 10 6c0-.265-.105-.52-.293-.707C9.52 5.105 9.265 5 9 5zM6.17 5c.207-.586.59-1.093 1.097-1.451.506-.359 1.112-.551 1.733-.551.62 0 1.226.192 1.733.55.507.36.89.866 1.097 1.452H19c.265 0 .52.105.707.293.188.187.293.442.293.707 0 .265-.105.52-.293.707C19.52 6.895 19.265 7 19 7h-7.17c-.207.586-.59 1.093-1.097 1.451-.507.359-1.112.551-1.733.551-.62 0-1.227-.192-1.733-.55-.507-.36-.89-.866-1.097-1.452H5c-.265 0-.52-.105-.707-.293C4.105 6.52 4 6.265 4 6c0-.265.105-.52.293-.707C4.48 5.105 4.735 5 5 5h1.17zM15 11c-.265 0-.52.105-.707.293-.188.187-.293.442-.293.707 0 .265.105.52.293.707.187.188.442.293.707.293.265 0 .52-.105.707-.293.188-.187.293-.442.293-.707 0-.265-.105-.52-.293-.707C15.52 11.105 15.265 11 15 11zm-2.83 0c.207-.585.59-1.093 1.097-1.451.507-.359 1.112-.551 1.733-.551.62 0 1.227.192 1.733.55.507.36.89.867 1.097 1.452H19c.265 0 .52.105.707.293.188.187.293.442.293.707 0 .265-.105.52-.293.707-.187.188-.442.293-.707.293h-1.17c-.207.585-.59 1.093-1.097 1.451-.506.359-1.112.551-1.733.551-.62 0-1.226-.192-1.733-.55-.507-.36-.89-.867-1.097-1.452H5c-.265 0-.52-.105-.707-.293C4.105 12.52 4 12.265 4 12c0-.265.105-.52.293-.707C4.48 11.105 4.735 11 5 11h7.17zM9 17c-.265 0-.52.105-.707.293C8.105 17.48 8 17.735 8 18c0 .265.105.52.293.707.187.188.442.293.707.293.265 0 .52-.105.707-.293.188-.187.293-.442.293-.707 0-.265-.105-.52-.293-.707C9.52 17.105 9.265 17 9 17zm-2.83 0c.207-.585.59-1.093 1.097-1.451.506-.359 1.112-.551 1.733-.551.62 0 1.226.192 1.733.55.507.36.89.867 1.097 1.452H19c.265 0 .52.105.707.293.188.187.293.442.293.707 0 .265-.105.52-.293.707-.187.188-.442.293-.707.293h-7.17c-.207.585-.59 1.093-1.097 1.451-.507.359-1.112.552-1.733.552-.62 0-1.227-.193-1.733-.552-.507-.358-.89-.866-1.097-1.451H5c-.265 0-.52-.105-.707-.293C4.105 18.52 4 18.265 4 18c0-.265.105-.52.293-.707C4.48 17.105 4.735 17 5 17h1.17z"/>
</svg>
