<svg xmlns="http://www.w3.org/2000/svg" width="24" height="24" fill="none" viewBox="0 0 24 24">
    <path fill="#252B33" d="M21 3H5c-.265 0-.52.105-.707.293C4.105 3.48 4 3.735 4 4v2.59c0 .523.213 1.037.583 1.407L10 13.414V21c0 .17.044.338.127.487.083.148.202.274.347.363.145.09.31.14.48.149.171.008.34-.028.493-.104l4-2c.339-.17.553-.516.553-.895v-5.586l5.417-5.417c.37-.37.583-.884.583-1.407V4c0-.265-.105-.52-.293-.707C21.52 3.105 21.265 3 21 3zm-6.707 9.293c-.093.093-.167.203-.217.324-.05.122-.076.252-.076.383v5.382l-2 1V13c0-.131-.026-.261-.076-.383-.05-.121-.124-.231-.217-.324L6 6.59V5h14.001l.002 1.583-5.71 5.71z"/>
</svg>
