<svg xmlns="http://www.w3.org/2000/svg" width="44" height="44" fill="none" viewBox="0 0 44 44">
    <path fill="#D0CFCE" d="M39.6 21.767l-.672-.367c-.244-.122-.366-.367-.305-.611.183-1.161.305-5.195-5.928-7.028-.122-.061-.245-.061-.367-.061l-11.978.061c-.244 0-.489.061-.672.183l-6.294 4.217c-.123.061-.245.122-.367.122-1.161-.06-2.261.061-3.422.245-3.3.672-4.645 2.444-5.134 3.36-.122.184-.122.429-.122.612.061 1.467-.916 3.117.55 4.461l11.856-.061 12.466-.306 9.84-.122c.55-.06 1.466-.855 1.71-1.344 1.04-1.65-1.038-3.3-1.16-3.361z"/>
    <path fill="#F1F1F1" d="M10.571 23.233c-1.344 0-2.444 1.1-2.444 2.445 0 1.344 1.1 2.444 2.444 2.444 1.345 0 2.445-1.1 2.445-2.444 0-1.345-1.1-2.445-2.445-2.445zM34.894 23.233c-1.345 0-2.445 1.1-2.445 2.445 0 1.344 1.1 2.444 2.445 2.444 1.344 0 2.444-1.1 2.444-2.444 0-1.345-1.1-2.445-2.444-2.445z"/>
    <path fill="#252B33" d="M34.283 18.894v-2.628c0-.55-.49-1.038-1.04-1.038H20.289c-.061 0-.122 0-.122.06l-4.889 3.484c-.122.061-.122.244-.061.367.061.06.122.122.183.122 3.423 0 16.623-.122 18.578-.061.183 0 .306-.122.306-.306 0 .061 0 .061 0 0z"/>
    <path fill="#FCEA2B" d="M5.44 19.628l2.444.977L6.6 22.378l-3.055.06 1.894-2.81z"/>
    <path stroke="#252B33" stroke-linecap="round" stroke-linejoin="round" stroke-width=".5" d="M29.089 26.044L16.5 26.29M4.95 26.289c-.55-.122-1.04-.306-1.1-.611-.062-.611-.184-2.322-.184-3.117 0-.305.061-.672.244-.916.673-1.223 2.934-4.156 9.106-3.912l6.295-4.216c.305-.183.672-.306.977-.306l11.978-.06c.183 0 .367 0 .55.06 1.344.367 7.15 2.445 6.356 7.7l.672.367c.305.122.55.428.61.733.245.856.184 1.773-.121 2.628"/>
    <path stroke="#252B33" stroke-linecap="round" stroke-linejoin="round" stroke-width=".5" d="M15.217 19.261l18.455-.122v-2.75M10.571 28.733c1.688 0 3.056-1.368 3.056-3.055 0-1.688-1.368-3.056-3.056-3.056-1.687 0-3.055 1.368-3.055 3.056 0 1.687 1.368 3.055 3.055 3.055zM34.893 28.733c1.688 0 3.056-1.368 3.056-3.055 0-1.688-1.368-3.056-3.056-3.056-1.687 0-3.055 1.368-3.055 3.056 0 1.687 1.368 3.055 3.055 3.055zM7.515 21.095l-1.1 1.344-2.26-.061"/>
    <path stroke="#252B33" stroke-linecap="round" stroke-linejoin="round" stroke-miterlimit="10" stroke-width=".5" d="M14.727 21.4h15.888"/>
    <path stroke="#F58730" stroke-linecap="round" stroke-linejoin="round" stroke-miterlimit="10" stroke-width=".525" d="M14.729 21.4h15.888"/>
</svg>
