<svg width="40" height="34" viewBox="0 0 40 34" fill="none" xmlns="http://www.w3.org/2000/svg">
<path d="M33.75 12.875C35.2081 12.8732 36.606 12.2931 37.6371 11.2621C38.6681 10.231 39.2482 8.83313 39.25 7.375V3.25H35.125C33.7172 3.25208 32.3644 3.79676 31.3479 4.77075C30.6356 3.47828 29.5898 2.40039 28.3195 1.64928C27.0492 0.898165 25.6008 0.501301 24.125 0.5H20V4.625C20.0025 6.81225 20.8726 8.90919 22.4192 10.4558C23.9658 12.0024 26.0627 12.8725 28.25 12.875H29.625V30.75H13.125V23.875H14.5C15.9581 23.8732 17.356 23.2931 18.3871 22.2621C19.4181 21.231 19.9982 19.8331 20 18.375V14.25H15.875C14.4672 14.2521 13.1144 14.7968 12.0979 15.7708C11.3856 14.4783 10.3398 13.4004 9.0695 12.6493C7.79919 11.8982 6.35076 11.5013 4.875 11.5H0.75V15.625C0.752547 17.8123 1.62256 19.9092 3.16918 21.4558C4.71581 23.0024 6.81275 23.8725 9 23.875H10.375V30.75H0.75V33.5H39.25V30.75H32.375V12.875H33.75ZM32.375 8.75C32.3757 8.02088 32.6657 7.32183 33.1813 6.80626C33.6968 6.29069 34.3959 6.00073 35.125 6H36.5V7.375C36.4993 8.10412 36.2093 8.80317 35.6937 9.31874C35.1782 9.83431 34.4791 10.1243 33.75 10.125H32.375V8.75ZM13.125 19.75C13.1257 19.0209 13.4157 18.3218 13.9313 17.8063C14.4468 17.2907 15.1459 17.0007 15.875 17H17.25V18.375C17.2493 19.1041 16.9593 19.8032 16.4437 20.3187C15.9282 20.8343 15.2291 21.1243 14.5 21.125H13.125V19.75ZM10.375 21.125H9C7.54187 21.1232 6.14398 20.5431 5.11292 19.5121C4.08187 18.481 3.50182 17.0831 3.5 15.625V14.25H4.875C6.33313 14.2518 7.73102 14.8319 8.76208 15.8629C9.79313 16.894 10.3732 18.2919 10.375 19.75V21.125ZM29.625 10.125H28.25C26.7919 10.1232 25.394 9.54313 24.3629 8.51208C23.3319 7.48102 22.7518 6.08313 22.75 4.625V3.25H24.125C25.5831 3.25182 26.981 3.83187 28.0121 4.86292C29.0431 5.89398 29.6232 7.29187 29.625 8.75V10.125Z" fill="#F58730"/>
</svg>
