<svg xmlns="http://www.w3.org/2000/svg" width="24" height="24" fill="none" viewBox="0 0 24 24">
    <path fill="#002AD1" d="M17.5 12c1.459 0 2.858.58 3.89 1.61C22.42 14.643 23 16.042 23 17.5s-.58 2.858-1.61 3.89C20.357 22.42 18.958 23 17.5 23s-2.858-.58-3.89-1.61C12.58 20.357 12 18.958 12 17.5s.58-2.858 1.61-3.89C14.643 12.58 16.042 12 17.5 12zM4 12.999l8.81.001c-1.163 1.209-1.812 2.822-1.81 4.5 0 1.087.267 2.112.739 3.013-1.05.35-2.208.487-3.239.487-2.722 0-6.335-.956-6.495-4.27L2 16.5v-1.501c0-.53.21-1.04.586-1.414.375-.375.884-.586 1.414-.586zm13.5 1.003l-.09.008c-.1.018-.192.066-.264.138-.072.072-.12.164-.138.264l-.008.09V17h-2.5l-.09.008c-.1.018-.192.067-.264.138-.072.072-.12.164-.138.264L14 17.5l.008.09c.018.1.067.192.138.264.072.072.164.12.264.138l.09.008H17v2.5l.008.09c.018.1.067.192.138.264.072.072.164.12.264.138l.09.008.09-.008c.1-.018.192-.067.264-.138.072-.072.12-.164.138-.264L18 20.5V18h2.5l.09-.008c.1-.018.192-.067.264-.138.072-.072.12-.164.138-.264L21 17.5l-.008-.09c-.018-.1-.067-.192-.138-.264-.072-.072-.164-.12-.264-.138L20.5 17H18v-2.498l-.008-.09c-.018-.1-.067-.192-.138-.264-.072-.072-.164-.12-.264-.138l-.09-.008zM8.5 2c.59 0 1.176.116 1.722.343.546.226 1.042.557 1.46.975.418.418.75.914.976 1.46.226.546.342 1.131.342 1.722s-.116 1.176-.342 1.722c-.227.546-.558 1.042-.976 1.46-.418.418-.914.75-1.46.976-.546.226-1.131.342-1.722.342-1.193 0-2.338-.474-3.182-1.318C4.474 8.838 4 7.693 4 6.5c0-1.193.474-2.338 1.318-3.182C6.162 2.474 7.307 2 8.5 2zm9 2c.928 0 1.819.369 2.475 1.025C20.63 5.681 21 6.572 21 7.5c0 .928-.369 1.819-1.025 2.475C19.318 10.63 18.428 11 17.5 11c-.928 0-1.819-.369-2.475-1.025C14.37 9.319 14 8.428 14 7.5c0-.928.369-1.819 1.025-2.475C15.681 4.37 16.572 4 17.5 4z"/>
</svg>
