<svg xmlns="http://www.w3.org/2000/svg" width="78" height="76" fill="none" viewBox="0 0 78 76">
    <path fill="url(#paint0_linear)" d="M49.518 17.092H28.5c-.479 0-.938.19-1.277.529-.338.338-.529.796-.53 1.274v46.628l-.24.073-5.156 1.576c-.245.075-.509.05-.734-.07-.226-.12-.395-.324-.47-.568L4.757 16.528c-.075-.244-.05-.507.07-.732.12-.226.325-.394.57-.469l7.945-2.428L36.376 5.86l7.945-2.428c.12-.037.248-.05.374-.039.126.012.248.049.36.108.111.06.21.14.291.237.08.098.141.21.178.33l3.92 12.783.074.24z"/>
    <path fill="#3F3D56" d="M54.104 16.852L49.38 1.447c-.078-.256-.207-.495-.378-.702-.17-.207-.381-.378-.619-.504-.237-.126-.497-.204-.765-.23-.267-.026-.537.002-.794.08L35.651 3.504l-23.033 7.04-11.17 3.414c-.52.159-.954.517-1.208.995-.255.479-.31 1.039-.15 1.557l16.148 52.648c.128.418.388.784.74 1.045.353.26.78.4 1.218.401.203 0 .405-.03.598-.09l7.658-2.34.24-.074v-.251l-.24.073-7.729 2.362c-.458.14-.953.092-1.375-.132-.423-.225-.74-.607-.88-1.064L.32 16.438c-.07-.226-.094-.463-.071-.7.022-.235.091-.464.203-.673.11-.21.262-.394.446-.545.183-.15.394-.264.62-.333l11.171-3.414 23.033-7.038L46.893.321c.173-.052.352-.08.532-.08.386.002.762.126 1.072.355.31.23.539.553.652.921l4.703 15.335.075.24h.25l-.073-.24z"/>
    <path fill="#002AD1" d="M14.776 15.367c-.233 0-.458-.075-.645-.213-.187-.137-.324-.331-.393-.553l-1.55-5.058c-.043-.135-.057-.278-.043-.42.013-.141.055-.278.121-.404.067-.125.158-.237.268-.327.11-.09.236-.158.372-.2l21.19-6.475c.275-.084.572-.056.826.079s.444.364.528.638L37 7.492c.084.275.055.571-.08.824-.134.254-.364.443-.639.528l-21.19 6.475c-.102.032-.21.048-.316.048z"/>
    <path fill="#002AD1" d="M22.902 5.405c1.33 0 2.409-1.077 2.409-2.405 0-1.328-1.079-2.404-2.41-2.404-1.33 0-2.408 1.076-2.408 2.404 0 1.328 1.079 2.405 2.409 2.405z"/>
    <path fill="#fff" d="M22.901 4.523c.843 0 1.526-.682 1.526-1.523 0-.84-.683-1.522-1.526-1.522-.842 0-1.525.681-1.525 1.522 0 .84.683 1.523 1.525 1.523z"/>
    <path fill="url(#paint1_linear)" d="M72.58 69.989H31.872c-.271 0-.531-.108-.723-.3-.192-.191-.3-.451-.3-.722V20.278c0-.271.108-.53.3-.722.192-.192.452-.3.723-.3H72.58c.272 0 .532.108.724.3.192.191.3.451.3.722v48.69c0 .27-.108.53-.3.721-.192.192-.452.3-.724.3z"/>
    <path fill="#3F3D56" d="M53.852 16.852H28.5c-.543 0-1.064.216-1.447.6-.384.382-.6.902-.6 1.443v49.026l.24-.073V18.895c0-.478.191-.936.53-1.274.338-.338.798-.528 1.277-.529h25.426l-.074-.24zm22.1 0H28.5c-.543 0-1.064.216-1.447.6-.384.382-.6.902-.6 1.443v55.061c0 .542.216 1.061.6 1.445.383.383.904.598 1.447.599h47.452c.543 0 1.063-.216 1.447-.6.384-.383.6-.902.6-1.444v-55.06c0-.542-.216-1.062-.6-1.445s-.904-.599-1.447-.6zm1.807 57.104c0 .478-.191.937-.53 1.275-.339.338-.798.528-1.277.529H28.5c-.48-.001-.939-.191-1.277-.53-.339-.337-.53-.796-.53-1.274v-55.06c0-.479.191-.937.53-1.275.338-.338.798-.528 1.277-.529h47.452c.48 0 .938.19 1.277.529.339.338.53.796.53 1.274v55.061z"/>
    <path fill="#002AD1" d="M63.306 22.141h-22.16c-.288 0-.563-.114-.767-.317-.203-.203-.317-.478-.317-.765v-5.29c0-.286.114-.561.317-.764.204-.203.48-.317.767-.317h22.16c.287 0 .563.114.766.317.203.203.318.478.318.765v5.29c0 .286-.115.561-.318.764-.203.203-.479.317-.766.317z"/>
    <path fill="#002AD1" d="M52.226 15.048c1.33 0 2.409-1.076 2.409-2.404 0-1.328-1.078-2.404-2.409-2.404-1.33 0-2.409 1.076-2.409 2.404 0 1.328 1.079 2.404 2.41 2.404z"/>
    <path fill="#fff" d="M52.227 14.108c.81 0 1.467-.655 1.467-1.464 0-.809-.657-1.464-1.467-1.464s-1.467.655-1.467 1.464c0 .809.657 1.464 1.467 1.464z"/>
    <defs>
        <linearGradient id="paint0_linear" x1="21.5" x2="39" y1=".5" y2="61.5" gradientUnits="userSpaceOnUse">
            <stop stop-color="#002AD1" stop-opacity=".3"/>
            <stop offset="1" stop-color="#F2F2F2" stop-opacity="0"/>
        </linearGradient>
        <linearGradient id="paint1_linear" x1="52.226" x2="52.226" y1="19.256" y2="69.989" gradientUnits="userSpaceOnUse">
            <stop stop-color="#002AD1" stop-opacity=".3"/>
            <stop offset="1" stop-color="#E6E6E6" stop-opacity="0"/>
        </linearGradient>
    </defs>
</svg>
