<svg xmlns="http://www.w3.org/2000/svg" width="24" height="24" fill="none" viewBox="0 0 24 24">
    <path stroke="#002AD1" stroke-linecap="round" stroke-linejoin="round" stroke-width="2" d="M17 21v-2c0-1.06-.421-2.078-1.172-2.828C15.078 15.422 14.061 15 13 15H5c-1.06 0-2.078.421-2.828 1.172C1.422 16.922 1 17.939 1 19v2M9 11c2.21 0 4-1.79 4-4s-1.79-4-4-4-4 1.79-4 4 1.79 4 4 4zM23 21v-2c0-.886-.296-1.747-.839-2.448-.543-.7-1.303-1.2-2.161-1.422M16 3.13c.86.22 1.623.72 2.168 1.422.544.702.84 1.565.84 2.453 0 .888-.296 1.751-.84 2.453-.545.701-1.308 1.202-2.168 1.422"/>
</svg>
