<svg xmlns="http://www.w3.org/2000/svg" width="25" height="24" fill="none" viewBox="0 0 25 24">
    <path fill="#252B33" d="M19.7 7.2h-15v-.6l13.2-1.056V6.6h1.8V4.8c0-1.32-1.069-2.246-2.374-2.06L5.276 4.46C3.97 4.648 2.9 5.88 2.9 7.2v12c0 .637.253 1.247.703 1.697.45.45 1.06.703 1.697.703h14.4c.637 0 1.247-.253 1.697-.703.45-.45.703-1.06.703-1.697V9.6c0-.637-.253-1.247-.703-1.697-.45-.45-1.06-.703-1.697-.703zm-1.8 8.407c-.236 0-.47-.046-.689-.137-.218-.09-.416-.223-.584-.39-.167-.168-.3-.366-.39-.585-.09-.218-.137-.453-.137-.689 0-.236.047-.47.138-.689.09-.219.223-.417.39-.584.168-.167.366-.3.584-.39.219-.09.453-.137.69-.137.477 0 .935.19 1.273.528.337.338.527.796.527 1.273 0 .478-.19.936-.528 1.273-.338.338-.796.527-1.274.527z"/>
</svg>
