<svg xmlns="http://www.w3.org/2000/svg" width="33" height="32" fill="none" viewBox="0 0 33 32">
    <path stroke="#B55407" stroke-linecap="round" stroke-linejoin="round" stroke-width="2" d="M11.386 16h.014-.014zm5.366 0h.013-.014zm5.365 0h.013-.013zm6.706 0c0 1.576-.312 3.136-.919 4.592-.606 1.456-1.495 2.779-2.616 3.893-1.121 1.115-2.452 1.998-3.917 2.602-1.464.603-3.034.913-4.62.913-1.585 0-3.155-.31-4.62-.913-1.464-.604-2.795-1.487-3.916-2.602-1.12-1.114-2.01-2.437-2.616-3.893-.607-1.456-.92-3.016-.92-4.592 0-3.183 1.273-6.235 3.536-8.485C10.48 5.265 13.55 4 16.752 4c3.201 0 6.272 1.264 8.536 3.515 2.264 2.25 3.535 5.302 3.535 8.485z"/>
</svg>
