<svg xmlns="http://www.w3.org/2000/svg" width="24" height="24" fill="none" viewBox="0 0 24 24">
    <path fill="#002AD1" fill-rule="evenodd" d="M16 9c0 1.06-.421 2.078-1.172 2.828C14.078 12.578 13.061 13 12 13c-1.06 0-2.078-.421-2.828-1.172C8.422 11.078 8 10.061 8 9c0-1.06.421-2.078 1.172-2.828C9.922 5.422 10.939 5 12 5c1.06 0 2.078.421 2.828 1.172C15.578 6.922 16 7.939 16 9zm-2 0c0 .53-.21 1.04-.586 1.414C13.04 10.79 12.53 11 12 11c-.53 0-1.04-.21-1.414-.586C10.21 10.04 10 9.53 10 9c0-.53.21-1.04.586-1.414C10.96 7.21 11.47 7 12 7c.53 0 1.04.21 1.414.586C13.79 7.96 14 8.47 14 9z" clip-rule="evenodd"/>
    <path fill="#002AD1" fill-rule="evenodd" d="M12 1C5.925 1 1 5.925 1 12s4.925 11 11 11 11-4.925 11-11S18.075 1 12 1zM3 12c0 2.09.713 4.014 1.908 5.542.84-1.102 1.922-1.995 3.163-2.61C9.313 14.318 10.68 14 12.065 14c1.367-.001 2.717.31 3.946.909s2.305 1.47 3.146 2.549c.866-1.136 1.45-2.463 1.702-3.87.252-1.406.165-2.852-.253-4.219-.417-1.367-1.155-2.614-2.15-3.639-.996-1.025-2.222-1.798-3.576-2.255-1.354-.458-2.797-.586-4.21-.375-1.413.211-2.756.756-3.917 1.589s-2.107 1.93-2.76 3.202C3.341 9.163 3 10.571 3 12zm9 9c-2.066.003-4.07-.708-5.672-2.012.645-.923 1.503-1.677 2.502-2.197 1-.52 2.109-.792 3.235-.791 1.112 0 2.209.264 3.198.771.99.508 1.843 1.245 2.491 2.149C16.139 20.267 14.103 21.003 12 21z" clip-rule="evenodd"/>
</svg>
