<svg xmlns="http://www.w3.org/2000/svg" width="26" height="24" fill="none" viewBox="0 0 26 24">
    <path fill="#002AD1" d="M16.926 4c.43 0 .845.159 1.158.444.312.285.5.675.525 1.089l.002.092V7h.908c1.504 0 2.722 1.175 2.722 2.625v6.75c0 .431-.177.844-.493 1.149-.316.305-.745.476-1.192.476h-1.945v.875c0 .431-.177.844-.493 1.149-.316.305-.745.476-1.192.476H8.888c-.447 0-.876-.171-1.192-.476-.316-.305-.494-.718-.494-1.149V18H5.258c-.447 0-.876-.171-1.192-.476-.316-.305-.494-.718-.494-1.149v-6.75C3.572 8.175 4.791 7 6.295 7h.907V5.625c0-.415.165-.814.46-1.116.296-.302.7-.483 1.13-.506L8.888 4h8.038zM8.499 18.875c0 .207.174.375.389.375h8.038c.103 0 .202-.04.275-.11.073-.07.114-.166.114-.265v-4.25c0-.1-.041-.195-.114-.265-.073-.07-.172-.11-.275-.11H8.888c-.103 0-.202.04-.275.11-.073.07-.114.165-.114.265v4.25zM16.926 5.25H8.888c-.094 0-.185.033-.256.092-.07.06-.117.142-.13.232l-.003.051V7h8.816V5.625c0-.09-.034-.178-.096-.246-.062-.069-.147-.113-.24-.125l-.053-.004z"/>
</svg>
