<svg xmlns="http://www.w3.org/2000/svg" width="70" height="70" fill="none" viewBox="0 0 70 70">
    <path fill="#252B33" fill-opacity=".1" d="M58.514 54.534c3.141-3.78 5.326-8.26 6.37-13.063 1.043-4.803.915-9.787-.375-14.53-1.29-4.742-3.703-9.104-7.035-12.717-3.333-3.613-7.486-6.37-12.109-8.038-4.623-1.668-9.58-2.198-14.451-1.545-4.872.652-9.514 2.469-13.535 5.295-4.02 2.827-7.302 6.58-9.565 10.942C5.55 25.241 4.37 30.085 4.375 35c.002 7.144 2.52 14.06 7.112 19.534l-.044.037c.153.184.328.341.486.523.196.225.409.437.612.656.612.665 1.242 1.304 1.903 1.903.201.184.41.355.613.53.7.603 1.42 1.177 2.165 1.71.096.066.184.151.28.22v-.027c5.124 3.605 11.235 5.54 17.5 5.54 6.265 0 12.377-1.935 17.5-5.54v.026c.096-.068.182-.153.28-.219.744-.536 1.466-1.107 2.166-1.71.203-.175.411-.348.612-.53.661-.601 1.291-1.238 1.904-1.903.203-.219.413-.43.612-.656.155-.182.332-.34.486-.525l-.048-.035zM35 17.5c1.947 0 3.85.577 5.469 1.659 1.619 1.081 2.88 2.619 3.625 4.417.745 1.799.94 3.778.56 5.688-.38 1.91-1.317 3.663-2.693 5.04-1.377 1.377-3.131 2.314-5.04 2.694-1.91.38-3.89.185-5.688-.56-1.799-.745-3.336-2.007-4.418-3.626-1.081-1.619-1.659-3.522-1.659-5.469 0-2.61 1.037-5.114 2.883-6.96S32.39 17.5 35 17.5zM17.515 54.534c.038-2.872 1.206-5.614 3.25-7.632 2.044-2.019 4.8-3.151 7.672-3.152h13.125c2.873.001 5.63 1.133 7.674 3.152 2.044 2.018 3.21 4.76 3.249 7.632C47.687 58.857 41.458 61.25 35 61.25s-12.687-2.393-17.485-6.716z"/>
</svg>
