<svg xmlns="http://www.w3.org/2000/svg" width="21" height="21" fill="none" viewBox="0 0 21 21">
    <path fill="#F58730" d="M14.9 5.861c-.708-.714-1.567-1.26-2.513-1.597-.947-.337-1.958-.458-2.957-.353-3.099.313-5.648 2.828-5.994 5.926-.464 4.095 2.701 7.547 6.694 7.547 1.275 0 2.524-.361 3.601-1.043 1.078-.681 1.94-1.654 2.486-2.806.27-.566-.135-1.216-.76-1.216-.312 0-.608.17-.743.448-.49 1.054-1.328 1.908-2.374 2.416-1.045.51-2.234.643-3.366.378-1.874-.414-3.385-1.942-3.782-3.816-.167-.74-.165-1.51.005-2.25.171-.74.506-1.432.98-2.026.474-.593 1.076-1.072 1.76-1.401.684-.33 1.434-.501 2.193-.502 1.402 0 2.651.582 3.563 1.503l-1.275 1.274c-.532.532-.16 1.444.59 1.444h3.032c.464 0 .844-.38.844-.844V5.912c0-.751-.912-1.131-1.444-.6l-.54.55z"/>
</svg>
