<svg width="16" height="20" viewBox="0 0 16 20" fill="none" xmlns="http://www.w3.org/2000/svg">
<path d="M15.74 5.32994L11.3 0.329936C11.2065 0.226343 11.0924 0.143465 10.9649 0.0866313C10.8375 0.0297973 10.6995 0.000265665 10.56 -6.41645e-05H2.56C2.22775 -0.00402726 1.89797 0.0574959 1.5895 0.180992C1.28103 0.304488 0.999904 0.487539 0.762182 0.71969C0.524459 0.951841 0.334794 1.22855 0.204018 1.534C0.0732421 1.83946 0.00391638 2.16768 0 2.49994V17.4999C0.00391638 17.8322 0.0732421 18.1604 0.204018 18.4659C0.334794 18.7713 0.524459 19.048 0.762182 19.2802C0.999904 19.5123 1.28103 19.6954 1.5895 19.8189C1.89797 19.9424 2.22775 20.0039 2.56 19.9999H13.44C13.7723 20.0039 14.102 19.9424 14.4105 19.8189C14.719 19.6954 15.0001 19.5123 15.2378 19.2802C15.4755 19.048 15.6652 18.7713 15.796 18.4659C15.9268 18.1604 15.9961 17.8322 16 17.4999V5.99994C15.9994 5.7521 15.9067 5.51333 15.74 5.32994ZM10 12.9999H6C5.73478 12.9999 5.48043 12.8946 5.29289 12.707C5.10536 12.5195 5 12.2652 5 11.9999C5 11.7347 5.10536 11.4804 5.29289 11.2928C5.48043 11.1053 5.73478 10.9999 6 10.9999H10C10.2652 10.9999 10.5196 11.1053 10.7071 11.2928C10.8946 11.4804 11 11.7347 11 11.9999C11 12.2652 10.8946 12.5195 10.7071 12.707C10.5196 12.8946 10.2652 12.9999 10 12.9999ZM10.71 5.99994C10.5038 5.97963 10.3139 5.87917 10.1811 5.72019C10.0483 5.5612 9.98327 5.35641 10 5.14994V1.99994L13.74 5.99994H10.71Z" fill="#252525" fill-opacity="0.7"/>
</svg>
