<svg xmlns="http://www.w3.org/2000/svg" width="56" height="57" fill="none" viewBox="0 0 56 57">
    <circle cx="28" cy="28.375" r="28" fill="#F05050" fill-opacity=".1"/>
    <path fill="#F05050" d="M39.407 21.492l-6.543-7.368c-.138-.153-.306-.275-.494-.359-.188-.083-.391-.127-.597-.127h-11.79c-.49-.006-.975.085-1.43.267-.454.181-.869.451-1.219.793-.35.342-.63.75-.822 1.2-.193.45-.295.934-.301 1.424v22.105c.006.49.108.974.3 1.424.193.45.473.858.823 1.2.35.342.765.612 1.22.794.454.182.94.272 1.43.266h16.033c.49.006.976-.084 1.43-.266.455-.182.87-.452 1.22-.794s.63-.75.822-1.2c.193-.45.295-.934.3-1.424V22.48c0-.365-.137-.717-.382-.988zm-8.46 11.304h-5.894c-.39 0-.766-.156-1.042-.432s-.432-.651-.432-1.042c0-.39.156-.766.432-1.042.276-.277.651-.432 1.042-.432h5.895c.39 0 .765.155 1.042.432.276.276.432.651.432 1.042 0 .39-.156.766-.432 1.042s-.651.432-1.042.432zm1.047-10.316c-.304-.03-.584-.178-.78-.412-.195-.235-.29-.537-.266-.84v-4.643l5.511 5.895h-4.465z"/>
</svg>
