<svg xmlns="http://www.w3.org/2000/svg" width="32" height="13" fill="none" viewBox="0 0 32 13">
    <path fill="#000" fill-rule="evenodd" d="M30.745 6.61c.17-.2.157-.497-.03-.68L25.85 1.143c-.197-.194-.514-.192-.707.005-.194.197-.191.514.005.707L29.361 6H1.5c-.276 0-.5.224-.5.5s.224.5.5.5h27.6l-3.98 4.676c-.18.21-.154.526.056.705.21.179.526.153.705-.057l4.864-5.714z" clip-rule="evenodd"/>
    <path fill="#252B33" d="M30.715 5.93l-.351.356.35-.357zm.03.68l-.381-.324.38.324zM25.85 1.144l-.35.356.35-.356zm-.707.005l.356.351-.356-.35zm.005.707l-.35.357.35-.357zM29.361 6v.5c.203 0 .386-.123.462-.31.077-.188.033-.404-.111-.546L29.36 6zm-.262 1l.381.324c.127-.148.155-.357.073-.534-.082-.177-.259-.29-.454-.29V7zm-3.98 4.676l-.38-.324.38.324zm.057.705l-.324.38.324-.38zm.705-.057L25.5 12l.38.324zm4.483-6.038l.761.648c.34-.4.314-.993-.06-1.361l-.701.713zM25.5 1.5l4.864 4.786.701-.713L26.201.787l-.7.713zm0 0l.701-.713C25.808.4 25.175.405 24.787.8l.713.701zm0 0l-.713-.701c-.387.393-.382 1.026.012 1.414L25.5 1.5zm4.212 4.144L25.5 1.5l-.701.713 4.211 4.144.701-.713zM1.5 6.5h27.86v-1H1.5v1zm0 0v-1c-.552 0-1 .448-1 1h1zm0 0h-1c0 .552.448 1 1 1v-1zm27.6 0H1.5v1h27.6v-1zM25.5 12l3.98-4.676-.761-.648-3.98 4.676.761.648zm0 0l-.761-.648c-.358.42-.308 1.051.113 1.41L25.5 12zm0 0l-.648.761c.42.359 1.052.308 1.41-.113L25.5 12zm4.864-5.714L25.5 12l.762.648 4.863-5.714-.761-.648z"/>
</svg>
