<svg xmlns="http://www.w3.org/2000/svg" width="24" height="24" fill="none" viewBox="0 0 24 24">
    <path fill="#002AD1" d="M20.403 11.332L4.627 3.082c-.124-.064-.262-.09-.4-.074-.137.016-.267.073-.374.164-.103.09-.179.208-.22.34-.043.133-.048.275-.017.41L5.739 12l-2.152 8.055c-.029.113-.032.232-.01.347.023.115.071.223.14.315.07.092.16.165.262.214.102.05.213.073.325.069.113 0 .223-.029.323-.082l15.776-8.25c.118-.063.216-.16.285-.277.07-.118.106-.253.106-.391s-.037-.273-.106-.391-.167-.214-.285-.277zm-14.987 7.5L7 12.75h6.626v-1.5H7L5.416 5.168 18.474 12 5.416 18.832z"/>
</svg>
