<svg xmlns="http://www.w3.org/2000/svg" width="25" height="24" fill="none" viewBox="0 0 25 24">
    <path fill="#252B33" d="M13.44 22h-1.89c-.446 0-.873-.177-1.188-.492-.315-.315-.492-.742-.492-1.188v-1.09c-.005-.064-.029-.126-.068-.177-.039-.051-.092-.09-.152-.113-.061-.04-.132-.06-.205-.06-.073 0-.144.02-.205.06l-.74.8c-.155.156-.34.28-.543.365-.204.085-.422.128-.642.128-.22 0-.438-.043-.642-.128-.203-.085-.388-.209-.543-.365L4.76 18.4c-.159-.155-.285-.34-.37-.544-.086-.205-.13-.424-.13-.646 0-.454.18-.888.5-1.21l.74-.74c.036-.055.055-.12.055-.185 0-.066-.02-.13-.055-.185-.06-.15-.16-.26-.3-.26H4.18c-.446-.003-.874-.182-1.189-.498-.314-.317-.491-.745-.491-1.192v-1.89c0-.446.177-.873.492-1.188.315-.315.742-.492 1.188-.492h1.09c.064-.005.126-.029.177-.068.051-.039.09-.092.113-.152.04-.061.06-.132.06-.205 0-.073-.02-.144-.06-.205L4.76 8c-.156-.155-.28-.34-.365-.543-.085-.204-.128-.422-.128-.642 0-.22.043-.438.128-.642.085-.203.209-.388.365-.543L6.1 4.26c.153-.158.337-.283.54-.37.202-.085.42-.13.64-.13.226-.001.45.043.66.128.21.086.4.213.56.372l.74.74c.055.036.12.055.185.055.066 0 .13-.02.185-.055.15-.06.26-.16.26-.3V3.68c.003-.446.182-.874.498-1.189.317-.314.745-.491 1.192-.491h1.94c.446 0 .873.177 1.188.492.315.315.492.742.492 1.188v1.09c.005.064.029.126.068.177.039.051.092.09.152.113.061.04.132.06.205.06.073 0 .144-.02.205-.06l.69-.8c.155-.156.34-.28.543-.365.204-.085.422-.128.642-.128.22 0 .438.043.642.128.203.085.388.209.543.365l1.37 1.34c.158.155.284.34.37.545.085.204.13.423.13.645.005.225-.037.45-.123.657-.086.209-.215.397-.377.553l-.74.74c-.036.055-.055.12-.055.185 0 .066.02.13.055.185.06.15.16.26.3.26h1.09c.434.02.844.208 1.144.522.3.315.466.733.466 1.168V13c0 .446-.177.873-.492 1.188-.315.315-.742.492-1.188.492h-1.09c-.064.005-.126.029-.177.068-.051.039-.09.092-.113.152-.036.055-.055.12-.055.185 0 .066.02.13.055.185l.77.77c.156.155.28.34.365.543.085.204.128.422.128.642 0 .22-.043.438-.128.642-.085.203-.209.388-.365.543l-1.31 1.33c-.153.158-.337.283-.54.37-.202.085-.42.13-.64.13-.447-.006-.873-.185-1.19-.5l-.77-.74c-.055-.036-.12-.055-.185-.055-.066 0-.13.02-.185.055-.15.06-.26.16-.26.3v1.09c-.02.434-.208.844-.522 1.144-.315.3-.733.466-1.168.466zm-1.57-2h1.26v-.77c.004-.461.145-.91.405-1.292.26-.38.627-.676 1.055-.848.43-.188.905-.243 1.367-.16.46.084.887.303 1.223.63l.54.54.88-.88-.54-.55c-.325-.331-.544-.751-.63-1.207-.085-.456-.033-.927.15-1.353.174-.426.47-.79.85-1.049.381-.258.83-.398 1.29-.401h.78v-1.29h-.77c-.461-.004-.91-.145-1.292-.405-.38-.26-.676-.627-.848-1.055-.188-.43-.243-.905-.16-1.367.084-.46.303-.887.63-1.223l.54-.54-.88-.88-.55.54c-.336.307-.753.512-1.202.59-.449.078-.91.026-1.33-.15-.421-.175-.782-.467-1.042-.84-.26-.374-.408-.815-.426-1.27V4h-1.3v.77c-.004.461-.145.91-.405 1.292-.26.38-.627.676-1.055.848-.43.188-.905.243-1.367.16-.46-.084-.887-.303-1.223-.63l-.54-.54-.88.88.54.55c.307.336.512.753.59 1.202.078.449.026.91-.15 1.33-.175.421-.467.782-.84 1.042-.374.26-.815.408-1.27.426H4.5v1.26h.77c.461.004.91.145 1.292.405.38.26.676.627.848 1.055.188.43.243.905.16 1.367-.084.46-.303.887-.63 1.223l-.54.54.88.88.55-.54c.336-.307.753-.512 1.202-.59.449-.078.91-.026 1.33.15.421.175.782.467 1.042.84.26.374.408.815.426 1.27l.04.81z"/>
    <path fill="#252B33" d="M12.5 15.5c-.692 0-1.369-.205-1.944-.59-.576-.384-1.025-.931-1.29-1.57-.264-.64-.334-1.344-.199-2.023s.469-1.302.958-1.792c.49-.49 1.113-.823 1.792-.958.68-.135 1.383-.065 2.022.2.64.264 1.187.713 1.571 1.289.385.575.59 1.252.59 1.944 0 .928-.369 1.819-1.025 2.475-.656.656-1.547 1.025-2.475 1.025zm0-5c-.297 0-.587.088-.833.253-.247.165-.44.399-.553.673-.113.274-.143.576-.085.867.058.29.2.558.41.768.21.21.477.352.768.41.291.058.593.028.867-.085.274-.114.508-.306.673-.553.165-.246.253-.536.253-.833 0-.398-.158-.78-.44-1.06-.28-.282-.662-.44-1.06-.44z"/>
</svg>
