<svg xmlns="http://www.w3.org/2000/svg" width="70" height="70" fill="none" viewBox="0 0 70 70">
    <path fill="#2EB57E" d="M35 5.833c16.11 0 29.167 13.058 29.167 29.167S51.11 64.167 35.001 64.167C18.89 64.167 5.834 51.109 5.834 35S18.892 5.833 35.001 5.833zm9.392 20.33L31.355 39.2l-5.746-5.746c-.415-.386-.963-.597-1.53-.587-.567.01-1.107.24-1.508.64-.4.401-.63.942-.64 1.509-.01.567.2 1.115.586 1.53l7.292 7.291c.41.41.966.64 1.546.64.58 0 1.135-.23 1.546-.64l14.583-14.583c.215-.2.387-.442.507-.71.12-.268.184-.558.189-.852.005-.293-.049-.585-.159-.858-.11-.272-.274-.52-.482-.727-.207-.208-.455-.372-.727-.482-.272-.11-.564-.164-.858-.159-.294.006-.583.07-.852.19-.268.12-.51.292-.71.506z"/>
</svg>
