<svg xmlns="http://www.w3.org/2000/svg" width="35" height="34" viewBox="0 0 35 34"><defs><style>.a{fill:#2eb57e;}.b{fill:#fff;}</style></defs><g transform="translate(-0.265 -0.265)"><ellipse class="a" cx="17.5" cy="17" rx="17.5" ry="17" transform="translate(0.265 0.265)"/><path class="b" d="M37.1,31.012v.537A6.549,6.549,0,1,1,30.549,25a6.062,6.062,0,0,1,2.678.6.586.586,0,1,1-.476,1.071,5.63,5.63,0,0,0-2.2-.476,5.366,5.366,0,1,0,5.357,5.358v-.537a.6.6,0,1,1,1.19,0Zm.417-5.239a.575.575,0,0,0-.834,0L30.549,31.9l-1.371-1.371a.589.589,0,0,0-.834.834l1.786,1.785a.575.575,0,0,0,.834,0L37.513,26.6a.575.575,0,0,0,0-.833Z" transform="translate(-13.227 -14.283)"/></g></svg>