<svg xmlns="http://www.w3.org/2000/svg" width="24" height="24" fill="none" viewBox="0 0 24 24">
    <g stroke="#002AD1" stroke-linecap="round" stroke-linejoin="round" stroke-width="2" clip-path="url(#clip0)">
        <path d="M16 16l-4-4-4 4M12 12v9"/>
        <path d="M20.39 18.39c.975-.532 1.745-1.373 2.19-2.391.443-1.019.536-2.156.262-3.232-.274-1.077-.899-2.031-1.776-2.714C20.19 9.371 19.11 9.001 18 9h-1.26c-.303-1.17-.867-2.258-1.65-3.179-.784-.921-1.766-1.653-2.872-2.14-1.107-.488-2.31-.718-3.518-.673-1.209.044-2.391.362-3.46.93-1.067.567-1.993 1.37-2.706 2.346-.713.976-1.196 2.102-1.412 3.291-.215 1.19-.158 2.414.167 3.578.325 1.165.91 2.24 1.71 3.147"/>
        <path d="M16 16l-4-4-4 4"/>
    </g>
    <defs>
        <clipPath id="clip0">
            <path fill="#fff" d="M0 0H24V24H0z"/>
        </clipPath>
    </defs>
</svg>
