<svg xmlns="http://www.w3.org/2000/svg" width="24" height="24" fill="none" viewBox="0 0 24 24">
    <path fill="#002AD1" d="M13.5 1.5v5.25c0 .597.237 1.169.659 1.591.422.422.994.659 1.591.659H21v11.25c0 .597-.237 1.169-.659 1.591-.422.422-.994.659-1.591.659h-5.755c1.596-1.12 2.744-2.769 3.24-4.654.497-1.886.31-3.886-.53-5.647-.837-1.76-2.272-3.167-4.049-3.97C9.88 7.424 7.876 7.276 6 7.81V3.75c0-.597.237-1.169.659-1.591.422-.422.994-.659 1.591-.659h5.25z"/>
    <path fill="#002AD1" d="M15 1.875V6.75c0 .199.079.39.22.53.14.141.331.22.53.22h4.875L15 1.875zM15 15.75c0 1.79-.711 3.507-1.977 4.773C11.757 21.789 10.04 22.5 8.25 22.5c-1.79 0-3.507-.711-4.773-1.977C2.211 19.257 1.5 17.54 1.5 15.75c0-1.79.711-3.507 1.977-4.773C4.743 9.711 6.46 9 8.25 9c1.79 0 3.507.711 4.773 1.977C14.289 12.243 15 13.96 15 15.75zm-6-3c0-.199-.079-.39-.22-.53-.14-.141-.331-.22-.53-.22s-.39.079-.53.22c-.141.14-.22.331-.22.53V15H5.25c-.199 0-.39.079-.53.22-.141.14-.22.331-.22.53s.079.39.22.53c.14.141.331.22.53.22H7.5v2.25c0 .199.079.39.22.53.14.141.331.22.53.22s.39-.079.53-.22c.141-.14.22-.331.22-.53V16.5h2.25c.199 0 .39-.079.53-.22.141-.14.22-.331.22-.53s-.079-.39-.22-.53c-.14-.141-.331-.22-.53-.22H9v-2.25z"/>
</svg>
