<svg xmlns="http://www.w3.org/2000/svg" width="21.712" height="24.13" viewBox="0 0 21.712 24.13"><defs><style>.a{fill:#0f5277;}</style></defs><path class="a" d="M42.859,4.156,35.219.167A1.643,1.643,0,0,0,33.1.778l-4.47,8.007H23.2a1.2,1.2,0,0,0-1.238,1.194V22.936A1.2,1.2,0,0,0,23.2,24.13H40.564A1.2,1.2,0,0,0,41.8,22.936V19.908h.513a.469.469,0,0,0,.483-.466V15.977a.469.469,0,0,0-.483-.466H41.8V12.1a1.226,1.226,0,0,0-.966-1.165l2.658-4.746A1.5,1.5,0,0,0,42.859,4.156ZM37.423,2.38l-4.772,8.531H31.293l5.1-9.055ZM33.981,1.215a.606.606,0,0,1,.785-.233l.755.408-5.315,9.521H28.545ZM22.9,9.95a.287.287,0,0,1,.272-.233h4.923l-.664,1.165H23.169a.866.866,0,0,0-.272.029ZM40.806,22.936a.266.266,0,0,1-.272.262H23.169a.266.266,0,0,1-.272-.262V12.1a.266.266,0,0,1,.272-.262H40.5a.266.266,0,0,1,.272.262v3.407H38.933a1.424,1.424,0,0,0-1.45,1.4v1.6a1.425,1.425,0,0,0,1.45,1.4h1.872v3.028Zm.966-6.493h.03v2.533H38.933a.469.469,0,0,1-.483-.466v-1.6a.469.469,0,0,1,.483-.466Zm.846-10.715-2.9,5.183h-5.98l4.53-8.065L42.376,5A.5.5,0,0,1,42.618,5.728Z" transform="translate(-21.961 0)"/><g transform="translate(16.556 5.031)"><path class="a" d="M241.072,69.369l-.233-.116a1.275,1.275,0,0,0-1.689.495l-.291.553a1.226,1.226,0,0,0-.087.961,1.173,1.173,0,0,0,.611.728l.233.116a1.325,1.325,0,0,0,.582.146,1.31,1.31,0,0,0,1.106-.641l.291-.553A1.3,1.3,0,0,0,241.072,69.369Zm-.32,1.252-.291.553a.329.329,0,0,1-.437.116l-.233-.146a.428.428,0,0,1-.146-.175.22.22,0,0,1,.029-.233l.291-.553a.386.386,0,0,1,.291-.175.263.263,0,0,1,.146.029l.233.116A.453.453,0,0,1,240.752,70.621Z" transform="translate(-238.71 -69.108)"/></g></svg>