<svg xmlns="http://www.w3.org/2000/svg" width="24" height="24" fill="none" viewBox="0 0 24 24">
    <path fill="#002AD1" d="M10.72 6l.516-.59V9c0 .265.1.52.28.707.18.188.423.293.676.293.254 0 .497-.105.676-.293.18-.187.28-.442.28-.707V5.41l.517.55c.087.103.193.185.311.243.119.058.248.09.378.094.131.003.262-.02.383-.072.122-.051.232-.128.324-.225.09-.093.16-.204.21-.325.048-.122.073-.253.073-.385s-.025-.263-.074-.385c-.048-.121-.12-.232-.21-.325l-2.189-2.29c-.09-.091-.198-.162-.315-.21-.233-.1-.494-.1-.727 0-.117.048-.225.119-.316.21l-2.19 2.25c-.184.194-.288.456-.288.73 0 .274.104.536.289.73.185.194.436.302.698.302.262 0 .513-.108.698-.302zm1.472 6c-.567 0-1.122.176-1.593.506-.472.33-.84.798-1.057 1.346-.217.548-.274 1.151-.163 1.733.11.582.384 1.117.785 1.536.401.42.912.706 1.469.821.556.116 1.133.057 1.657-.17s.972-.612 1.287-1.105c.316-.494.484-1.074.484-1.667 0-.796-.302-1.559-.84-2.121-.538-.563-1.268-.879-2.029-.879zm0 4c-.189 0-.374-.059-.53-.168-.158-.11-.28-.267-.353-.45-.072-.182-.091-.383-.054-.577.036-.194.127-.372.261-.512s.304-.235.49-.274c.185-.038.377-.019.552.057.175.076.324.204.43.368.104.165.16.358.16.556 0 .265-.1.52-.28.707-.179.188-.422.293-.676.293zM5.5 15c0 .198.056.391.162.556.105.164.254.292.429.368.174.076.367.095.552.057.186-.039.356-.134.49-.274.133-.14.224-.318.261-.512.037-.194.018-.395-.054-.578-.073-.182-.195-.339-.352-.449-.158-.11-.342-.168-.531-.168-.254 0-.497.105-.677.293-.179.187-.28.442-.28.707zm13.386 0c0-.198-.056-.391-.16-.556-.106-.164-.255-.292-.43-.368-.175-.076-.367-.095-.552-.057-.186.039-.356.134-.49.274s-.225.318-.262.512c-.037.194-.017.395.055.578.072.182.195.339.352.449.157.11.342.168.531.168.254 0 .497-.105.676-.293.18-.187.28-.442.28-.707zm.956-7h-3.824c-.254 0-.497.105-.676.293-.18.187-.28.442-.28.707 0 .265.1.52.28.707.18.188.422.293.676.293h3.825c.253 0 .496.105.676.293.179.187.28.442.28.707v8c0 .265-.101.52-.28.707-.18.188-.423.293-.677.293H4.543c-.253 0-.497-.105-.676-.293-.18-.187-.28-.442-.28-.707v-8c0-.265.1-.52.28-.707.18-.188.423-.293.676-.293h3.825c.253 0 .497-.105.676-.293.18-.187.28-.442.28-.707 0-.265-.1-.52-.28-.707C8.864 8.105 8.62 8 8.368 8H4.543c-.76 0-1.49.316-2.028.879-.538.562-.84 1.325-.84 2.121v8c0 .796.302 1.559.84 2.121.538.563 1.267.879 2.028.879h15.298c.761 0 1.49-.316 2.029-.879.538-.562.84-1.325.84-2.121v-8c0-.796-.302-1.559-.84-2.121C21.332 8.316 20.602 8 19.84 8z"/>
</svg>
